<svg xmlns="http://www.w3.org/2000/svg" xmlns:xlink="http://www.w3.org/1999/xlink" width="200" zoomAndPan="magnify" viewBox="0 0 150 149.999998" height="200" preserveAspectRatio="xMidYMid meet" version="1.0"><defs><g/></defs><g fill="#e69653" fill-opacity="1"><g transform="translate(48.855856, 113.384397)"><g><path d="M 31.394531 -78.523438 C 31.152344 -69.488281 31.21875 -60.507812 31.5 -51.460938 L 17.375 -49.058594 C 17.199219 -51.332031 17.140625 -53.515625 16.964844 -55.785156 C 16.796875 -60.460938 15.746094 -66.035156 16.628906 -70.679688 C 18.511719 -80.511719 3.101562 -81.972656 1.203125 -72.238281 C 0.339844 -67.492188 1.289062 -61.902344 1.609375 -56.9375 C 1.796875 -51.535156 2.101562 -46.046875 2.410156 -40.554688 C 2.988281 -29.15625 3.566406 -17.753906 4.148438 -6.351562 C 4.6875 3.59375 19.914062 0.902344 19.390625 -8.941406 C 18.9375 -17.125 18.589844 -25.324219 18.121094 -33.609375 L 32.144531 -35.992188 C 32.523438 -29.472656 32.984375 -23.066406 33.5625 -16.578125 C 34.511719 -6.703125 49.753906 -9.296875 48.804688 -19.171875 C 46.996094 -38.414062 46.339844 -57.644531 46.820312 -76.960938 C 47.023438 -86.824219 31.703125 -88.402344 31.394531 -78.523438 Z M 31.394531 -78.523438 "/></g></g></g></svg>