<svg xmlns="http://www.w3.org/2000/svg" xmlns:xlink="http://www.w3.org/1999/xlink" width="200" zoomAndPan="magnify" viewBox="0 0 150 149.999998" height="200" preserveAspectRatio="xMidYMid meet" version="1.0"><defs><g/></defs><g fill="#e69653" fill-opacity="1"><g transform="translate(33.910306, 135.326775)"><g><path d="M 49.339844 -123.40625 C 48.960938 -109.210938 49.0625 -95.097656 49.507812 -80.878906 L 27.308594 -77.105469 C 27.03125 -80.671875 26.941406 -84.109375 26.664062 -87.675781 C 26.398438 -95.023438 24.746094 -103.78125 26.132812 -111.082031 C 29.09375 -126.539062 4.878906 -128.828125 1.890625 -113.53125 C 0.53125 -106.070312 2.023438 -97.289062 2.53125 -89.488281 C 2.824219 -80.992188 3.304688 -72.367188 3.785156 -63.738281 C 4.695312 -45.820312 5.609375 -27.902344 6.519531 -9.980469 C 7.367188 5.648438 31.296875 1.414062 30.472656 -14.054688 C 29.765625 -26.914062 29.214844 -39.800781 28.480469 -52.820312 L 50.519531 -56.570312 C 51.113281 -46.316406 51.835938 -36.253906 52.75 -26.058594 C 54.238281 -10.535156 78.191406 -14.609375 76.703125 -30.132812 C 73.863281 -60.375 72.832031 -90.597656 73.582031 -120.957031 C 73.90625 -136.457031 49.824219 -138.933594 49.339844 -123.40625 Z M 49.339844 -123.40625 "/></g></g></g></svg>